<?xml version="1.0" encoding="utf-8"?>
<!-- Generator: Adobe Illustrator 24.0.2, SVG Export Plug-In . SVG Version: 6.00 Build 0)  -->
<svg version="1.1" id="Capa_1" xmlns="http://www.w3.org/2000/svg" xmlns:xlink="http://www.w3.org/1999/xlink" x="0px" y="0px"
	 viewBox="0 0 216 216" style="enable-background:new 0 0 216 216;" xml:space="preserve">
<style type="text/css">
	.st0{fill:#1FDB99;}
	.st1{fill:#FFFFFF;}
	.st2{fill:none;stroke:#000000;stroke-width:3;stroke-linejoin:round;stroke-miterlimit:10;}
	.st3{fill:none;stroke:#000000;stroke-width:3;stroke-linecap:round;stroke-linejoin:round;stroke-miterlimit:10;}
</style>
<g>
	<g>
		<g>
			<path class="st0" d="M108,164.11c40.17-17.41,81.54-75.52,50.96-103.1S108,77.2,108,77.2S87.62,33.43,57.04,61.01
				S67.83,146.7,108,164.11z"/>
			<path class="st1" d="M108,142.02c24.35-10.55,49.43-45.79,30.9-62.51S108,89.33,108,89.33S95.64,62.8,77.1,79.52
				S83.65,131.46,108,142.02z"/>
			<g>
				<path class="st2" d="M115.84,102.55"/>
			</g>
			<path class="st3" d="M60.4,123.39c-15.07-22.04-20.44-46.98-3.36-62.38C87.62,33.43,108,77.2,108,77.2s20.38-43.77,50.96-16.19
				S148.17,146.7,108,164.11c-10.78-4.67-21.64-12.27-31.18-21.43"/>
		</g>
	</g>
	<polygon points="121.09,104.57 113.43,104.57 113.43,94.92 103.83,94.92 103.83,104.57 96.17,104.57 96.17,114.18 103.83,114.18 
		103.83,121.84 113.43,121.84 113.43,114.18 121.09,114.18 	"/>
</g>
</svg>
