<?xml version="1.0" encoding="utf-8"?>
<!-- Generator: Adobe Illustrator 24.0.2, SVG Export Plug-In . SVG Version: 6.00 Build 0)  -->
<svg version="1.1" id="Capa_1" xmlns="http://www.w3.org/2000/svg" xmlns:xlink="http://www.w3.org/1999/xlink" x="0px" y="0px"
	 viewBox="0 0 227.16 227.16" style="enable-background:new 0 0 227.16 227.16;" xml:space="preserve">
<style type="text/css">
	.st0{fill:#05A098;}
	.st1{fill:#FFFFFF;}
</style>
<circle class="st0" cx="113.58" cy="113.58" r="113.58"/>
<path class="st1" d="M54.04,64.49c2.29-3.35,5.01-6.78,8.16-10.3c3.15-3.52,6.34-6.5,9.57-8.96c3.23-2.45,6.34-4.13,9.32-5.02
	c2.98-0.89,5.42-0.44,7.3,1.34c2.37,2.34,3.54,5.75,3.5,10.21c-0.04,4.46-0.86,9.57-2.45,15.32c-1.6,5.75-3.7,11.89-6.32,18.42
	c-2.62,6.53-5.27,12.95-7.98,19.25c-2.7,6.31-5.21,12.25-7.54,17.83c-2.33,5.58-3.99,10.33-4.97,14.23
	c3.11-5.69,6.66-12,10.67-18.92c4.01-6.92,8.18-13.81,12.51-20.68c4.33-6.86,8.67-13.42,13-19.67c4.33-6.25,8.38-11.58,12.14-15.99
	c3.76-4.41,7.07-7.59,9.94-9.55c2.86-1.95,4.99-2.09,6.38-0.42c1.23,1.34,1.61,4.19,1.17,8.54c-0.45,4.36-1.31,9.38-2.58,15.07
	c-1.27,5.7-2.82,11.66-4.66,17.91c-1.84,6.25-3.54,12-5.09,17.25c2.94-5.7,6.36-11.61,10.24-17.75c3.88-6.14,7.89-11.97,12.02-17.49
	c4.13-5.53,8.24-10.49,12.33-14.9c4.09-4.41,7.85-7.73,11.28-9.96c3.93-2.68,6.91-3.94,8.96-3.77c2.04,0.17,3.44,1.23,4.17,3.18
	c0.74,1.95,0.98,4.52,0.74,7.7c-0.25,3.18-0.72,6.39-1.41,9.63c-0.69,3.23-1.45,6.28-2.27,9.12c-0.82,2.85-1.43,4.94-1.84,6.28
	c-0.49,1.56-1.37,4.07-2.64,7.53c-1.27,3.46-2.74,7.53-4.42,12.22c-1.68,4.69-3.52,9.79-5.52,15.32
	c-2.01,5.53-3.99,11.13-5.95,16.83c-1.96,5.69-3.82,11.25-5.58,16.66c-1.76,5.41-3.27,10.35-4.54,14.82
	c-1.27,4.46-2.19,8.26-2.76,11.38c-0.57,3.12-0.65,5.19-0.25,6.19c0.49,1.23,1.53,1.53,3.13,0.92c1.6-0.62,3.52-1.82,5.77-3.6
	c2.25-1.79,4.72-3.99,7.42-6.61c2.7-2.62,5.38-5.36,8.04-8.21c2.66-2.85,5.21-5.63,7.67-8.37c2.45-2.73,4.58-5.11,6.38-7.12
	c-1.31,1.57-3.23,3.91-5.77,7.03c-2.54,3.12-5.32,6.39-8.34,9.79c-3.03,3.41-6.16,6.72-9.38,9.96c-3.23,3.23-6.2,5.78-8.89,7.62
	c-2.7,1.84-4.95,2.71-6.75,2.59c-1.8-0.11-2.82-1.79-3.07-5.02c-0.16-2.34,0.33-6.08,1.47-11.22c1.14-5.13,2.66-11.02,4.54-17.66
	c1.88-6.64,4.01-13.64,6.38-21.01c2.37-7.37,4.68-14.48,6.93-21.35c2.25-6.86,4.27-13.06,6.07-18.58c1.8-5.52,3.15-9.79,4.05-12.8
	c0.08-0.34,0.41-1.31,0.98-2.93c0.57-1.62,1.19-3.52,1.84-5.7c0.65-2.18,1.27-4.46,1.84-6.86c0.57-2.4,0.96-4.54,1.16-6.45
	c0.2-1.9,0.1-3.35-0.31-4.35c-0.41-1-1.27-1.23-2.58-0.67c-2.62,1-5.62,3.1-9.02,6.28c-3.4,3.18-6.91,6.95-10.55,11.3
	c-3.64,4.35-7.3,9.15-10.98,14.4c-3.68,5.25-7.1,10.46-10.24,15.66c-3.15,5.19-5.93,10.15-8.34,14.9
	c-2.41,4.75-4.15,8.79-5.21,12.14c-0.16,0-0.43-0.08-0.8-0.25c-0.37-0.17-0.72-0.47-1.04-0.92c-0.33-0.44-0.53-1.09-0.61-1.93
	c-0.08-0.83,0.16-1.98,0.74-3.43c0.49-1.11,1-2.34,1.53-3.68c0.53-1.34,1.12-2.62,1.78-3.85c1.31-4.91,2.74-10.27,4.29-16.07
	c1.55-5.8,2.92-11.3,4.11-16.49c1.18-5.19,2.04-9.71,2.58-13.56c0.53-3.85,0.43-6.39-0.31-7.62c-0.74-1.22-2.21-0.86-4.42,1.09
	c-2.21,1.96-4.91,4.97-8.1,9.04c-3.19,4.07-6.73,8.95-10.61,14.65c-3.88,5.69-7.83,11.72-11.84,18.08
	c-4.01,6.36-7.95,12.75-11.84,19.17c-3.89,6.42-7.4,12.42-10.55,18c-3.15,5.58-5.83,10.44-8.03,14.57
	c-2.21,4.13-3.64,7.03-4.29,8.71c-0.33,0-0.76-0.17-1.29-0.51c-0.53-0.33-0.98-0.83-1.35-1.51c-0.37-0.67-0.57-1.51-0.61-2.51
	c-0.04-1,0.31-2.23,1.04-3.68c0.65-1.23,1.35-2.71,2.09-4.44c0.74-1.73,1.67-3.48,2.82-5.27c0.9-2.57,1.74-5.13,2.51-7.7
	c0.78-2.56,1.61-5.19,2.51-7.87c1.55-4.57,3.52-10.07,5.89-16.49c2.37-6.42,4.74-13,7.12-19.76c2.37-6.75,4.54-13.28,6.5-19.59
	c1.96-6.3,3.31-11.58,4.05-15.82c0.9-5.58,0.82-9.29-0.25-11.13c-1.06-1.84-2.74-2.43-5.03-1.76c-2.29,0.67-4.93,2.23-7.91,4.69
	c-2.99,2.46-5.89,5.25-8.71,8.37c-2.82,3.13-5.34,6.19-7.55,9.21c-2.21,3.02-3.68,5.41-4.41,7.2c-1.64,0.45-2.56,0.28-2.76-0.5
	c-0.2-0.78-0.08-1.79,0.37-3.01c0.45-1.23,1.06-2.45,1.84-3.69C53.16,65.95,53.71,65.05,54.04,64.49"/>
</svg>
