<?xml version="1.0" encoding="utf-8"?>
<!-- Generator: Adobe Illustrator 24.0.2, SVG Export Plug-In . SVG Version: 6.00 Build 0)  -->
<svg version="1.1" id="Capa_1" xmlns="http://www.w3.org/2000/svg" xmlns:xlink="http://www.w3.org/1999/xlink" x="0px" y="0px"
	 viewBox="0 0 216 216" style="enable-background:new 0 0 216 216;" xml:space="preserve">
<style type="text/css">
	.st0{fill:#1FDB99;}
	.st1{fill:none;stroke:#000000;stroke-width:3;stroke-linecap:round;stroke-linejoin:round;stroke-miterlimit:10;}
	.st2{fill:#FFFFFF;}
</style>
<g>
	<g>
		<path class="st0" d="M159.6,99.3c-4.3,6.4-10.6,12.9-20.1,16.8c0,0,11.5-18.7,5.5-21.1c-6.1-2.4-8.8,11.5-20.7,20
			c-11.4,8.1-14.9,24.8-15.9,39.7h-0.6c-0.9-14.9-4.4-31.6-15.9-39.7c-11.9-8.5-14.7-22.4-20.8-20c-6.1,2.4,5.5,21.1,5.5,21.1
			c-9.5-3.9-15.9-10.3-20.1-16.8c1.9-26.8,24.3-48,51.6-48S157.7,72.5,159.6,99.3z"/>
		<g>
			<g>
				<path class="st1" d="M48.2,78.6c0,0,3.7,27.3,28.4,37.5c0,0-11.5-18.7-5.5-21.1s8.8,11.5,20.8,20c14.1,10,16.2,33.2,16.2,49.7"
					/>
				<path class="st1" d="M40.6,86.9c0,0-1.7,22.6,29.3,36.2"/>
				<path class="st1" d="M37.1,103.2c0,0,2.9,21.7,32.1,28.9"/>
				<path class="st1" d="M38.9,122.6c0,0,8.6,14.6,28.9,17.9c13.5,2.2,11.8,24.1,11.8,24.1"/>
			</g>
			<g>
				<path class="st1" d="M167.8,78.6c0,0-3.6,27.3-28.4,37.5c0,0,11.5-18.7,5.5-21.1s-8.8,11.5-20.7,20
					c-14.1,10-16.2,33.2-16.2,49.7"/>
				<path class="st1" d="M175.4,86.9c0,0,1.7,22.6-29.3,36.2"/>
				<path class="st1" d="M178.9,103.2c0,0-2.9,21.7-32.1,28.9"/>
				<path class="st1" d="M177.1,122.6c0,0-8.6,14.6-28.9,17.9c-13.5,2.2-11.9,24.1-11.9,24.1"/>
			</g>
			<line class="st1" x1="108" y1="148.2" x2="108" y2="90.7"/>
			<path class="st2" d="M108,90.6c0,0-11.3-18.9-17.6-11.3C84.1,86.9,98.6,91.7,108,90.6z"/>
			<path class="st2" d="M108,90.6c0,0,11.3-18.9,17.6-11.3C131.9,86.9,117.4,91.7,108,90.6z"/>
			<path class="st1" d="M108,90.6c0,0-11.3-18.9-17.6-11.3C84.1,86.9,98.6,91.7,108,90.6z"/>
			<path class="st1" d="M108,90.6c0,0,11.3-18.9,17.6-11.3C131.9,86.9,117.4,91.7,108,90.6z"/>
		</g>
	</g>
</g>
</svg>
