<?xml version="1.0" encoding="utf-8"?>
<!-- Generator: Adobe Illustrator 24.0.2, SVG Export Plug-In . SVG Version: 6.00 Build 0)  -->
<svg version="1.1" id="Capa_1" xmlns="http://www.w3.org/2000/svg" xmlns:xlink="http://www.w3.org/1999/xlink" x="0px" y="0px"
	 viewBox="0 0 216 216" style="enable-background:new 0 0 216 216;" xml:space="preserve">
<style type="text/css">
	.st0{fill:#1FDB99;}
	.st1{fill:none;stroke:#000000;stroke-width:3;stroke-linecap:round;stroke-linejoin:round;stroke-miterlimit:10;}
</style>
<g>
	<g>
		<path class="st0" d="M108,156.21c29.08-12.6,59.03-54.67,36.89-74.64S108,93.29,108,93.29S93.24,61.6,71.11,81.57
			S78.92,143.6,108,156.21z"/>
		<g>
			<path class="st1" d="M75.32,110.24c0,0-8.18-2.51-7.74,4.75s7.77,4.82,7.77,4.82"/>
			<path class="st1" d="M75,112.86c0.13-3.31,1.58-12.35,13.26-16.59c14.45-5.25,30.42,7.11,30.42,7.11s-11.82-23.42-4.05-26.05
				c7.77-2.63,12.15,15.54,12.69,23.53c0,0,7.8-1.51,12.37,5.8c2.74,4.38,4.38,9.85,1.97,11.71s-9.96,4.05-15.76-2.63"/>
			<path class="st1" d="M122.29,82.16c0,0-1.75-5.38,3.4-6.14c5.14-0.77,8.69,13.72,5.66,24.92"/>
			<path class="st1" d="M88.48,111.29c0,0,9.47-6.82,14.59,2.31c4.42,7.88-5.73,14.96-5.73,14.96"/>
			<path class="st1" d="M74.99,117.5c0,0,0.12,8.77,10.3,14.88c10.19,6.11,19.75,7,21.88,5.23s-0.2-8.73-13.64-9.04"/>
			<path class="st1" d="M118.46,119.81c0,0,4.36,8.7,7.03,11.29c2.67,2.59,2,4.81,0,5.92s-6.66-0.96-8.8-4.73
				c-2.15-3.77-3.92-6.73-4.73-9.76"/>
			<path class="st1" d="M130.49,119.24c0,0-2.05,5.71-8,7.79"/>
			<path class="st1" d="M114.26,127.95c0,0-4.48,0.85-9.63,1.07"/>
			<path class="st1" d="M107.86,135.98c0,0,6.69,2.17,7.64-0.96c0.96-3.14-8.21-5.99-8.21-5.99"/>
			<path class="st1" d="M127.23,134.64c0,0,1.4,2.08,4.12-0.04c3.02-2.35-4.86-9.87-4.86-9.87"/>
		</g>
		<path class="st1" d="M92.52,117.5c0,0-15.49,4.51-8.59,14.01"/>
		<g>
			<circle class="st1" cx="108" cy="108" r="55.62"/>
		</g>
	</g>
</g>
</svg>
