<?xml version="1.0" encoding="utf-8"?>
<!-- Generator: Adobe Illustrator 24.0.2, SVG Export Plug-In . SVG Version: 6.00 Build 0)  -->
<svg version="1.1" id="Capa_1" xmlns="http://www.w3.org/2000/svg" xmlns:xlink="http://www.w3.org/1999/xlink" x="0px" y="0px"
	 viewBox="0 0 216 216" style="enable-background:new 0 0 216 216;" xml:space="preserve">
<style type="text/css">
	.st0{fill:none;stroke:#000000;stroke-width:3;stroke-linecap:round;stroke-linejoin:round;stroke-miterlimit:10;}
	.st1{fill:none;stroke:#1FDB99;stroke-width:4;stroke-miterlimit:10;}
	.st2{fill:#1FDB99;}
</style>
<g>
	<g>
		<g>
			<path class="st0" d="M122.42,72.08H95.79c-4.13,0-7.47,3.34-7.47,7.47l0,0c0,4.13,3.34,7.47,7.47,7.47h3.32v53.12
				c0,5.83,4.72,10.55,10.55,10.55l0,0c5.83,0,10.55-4.72,10.55-10.55V87.02h2.21c4.13,0,7.47-3.34,7.47-7.47l0,0
				C129.89,75.42,126.54,72.08,122.42,72.08z"/>
			<line class="st0" x1="120.2" y1="87.02" x2="109.1" y2="87.02"/>
		</g>
		<g>
			<circle class="st1" cx="108" cy="108" r="55.88"/>
			<line class="st1" x1="85.43" y1="130.57" x2="68.48" y2="147.52"/>
			<line class="st1" x1="147.52" y1="68.48" x2="140.33" y2="75.67"/>
		</g>
		<circle class="st2" cx="110.61" cy="106.16" r="4.82"/>
		<circle class="st2" cx="104.13" cy="114.43" r="2.67"/>
		<circle class="st2" cx="112.59" cy="120.89" r="3.8"/>
	</g>
</g>
</svg>
