<?xml version="1.0" encoding="utf-8"?>
<!-- Generator: Adobe Illustrator 24.0.2, SVG Export Plug-In . SVG Version: 6.00 Build 0)  -->
<svg version="1.1" id="Capa_1" xmlns="http://www.w3.org/2000/svg" xmlns:xlink="http://www.w3.org/1999/xlink" x="0px" y="0px"
	 viewBox="0 0 145.46 145.39" style="enable-background:new 0 0 145.46 145.39;" xml:space="preserve">
<style type="text/css">
	.st0{fill:url(#SVGID_1_);}
	.st1{fill:#FFFFFF;}
</style>
<g>
	<linearGradient id="SVGID_1_" gradientUnits="userSpaceOnUse" x1="72.73" y1="38.5549" x2="72.73" y2="109.2581">
		<stop  offset="0" style="stop-color:#98E05F"/>
		<stop  offset="1" style="stop-color:#0DE3AC"/>
	</linearGradient>
	<rect x="46.2" y="46.16" class="st0" width="53.07" height="53.07"/>
	<path class="st1" d="M72.68,64.86c-1.51,1.76-2.99,3.49-4.47,5.22c-3.1,3.62-6.21,7.24-9.3,10.86c-0.65,0.76-1.43,1.2-2.44,1.08
		c-1.03-0.12-1.77-0.66-2.17-1.63c-0.41-0.99-0.24-1.92,0.44-2.73c1.13-1.35,2.29-2.68,3.43-4.02c4.1-4.79,8.2-9.57,12.29-14.36
		c0.76-0.89,1.68-1.41,2.84-1.06c0.54,0.16,1.12,0.51,1.48,0.94c5.33,6.18,10.64,12.39,15.94,18.6c1,1.17,0.87,2.83-0.28,3.78
		c-1.17,0.98-2.76,0.81-3.81-0.41c-4.51-5.26-9.01-10.51-13.51-15.77C72.99,65.19,72.85,65.05,72.68,64.86z"/>
</g>
</svg>
