<?xml version="1.0" encoding="utf-8"?>
<!-- Generator: Adobe Illustrator 24.0.2, SVG Export Plug-In . SVG Version: 6.00 Build 0)  -->
<svg version="1.1" id="Capa_1" xmlns="http://www.w3.org/2000/svg" xmlns:xlink="http://www.w3.org/1999/xlink" x="0px" y="0px"
	 viewBox="0 0 145.46 145.39" style="enable-background:new 0 0 145.46 145.39;" xml:space="preserve">
<style type="text/css">
	.st0{fill:url(#SVGID_1_);}
	.st1{fill-rule:evenodd;clip-rule:evenodd;fill:#FFFFFF;}
</style>
<g>
	<linearGradient id="SVGID_1_" gradientUnits="userSpaceOnUse" x1="73" y1="119.8675" x2="73" y2="11.3675">
		<stop  offset="0" style="stop-color:#27CD44"/>
		<stop  offset="1" style="stop-color:#5FFB7C"/>
	</linearGradient>
	<circle class="st0" cx="73" cy="73.5" r="54.25"/>
	<g>
		<g id="WA_Logo_2_">
			<g>
				<path class="st1" d="M99.1,48.07c-6.5-6.5-15.14-10.09-24.34-10.09c-18.97,0-34.41,15.43-34.41,34.4
					c0,6.06,1.58,11.98,4.59,17.2l-4.88,17.83l18.24-4.78c5.03,2.74,10.69,4.19,16.45,4.19h0.01c0,0,0,0,0,0
					c18.97,0,34.41-15.43,34.41-34.4C109.17,63.22,105.59,54.57,99.1,48.07z M74.75,101h-0.01c-5.13,0-10.17-1.38-14.56-3.99
					l-1.04-0.62l-10.83,2.84l2.89-10.55l-0.68-1.08c-2.86-4.55-4.38-9.82-4.37-15.22c0.01-15.77,12.84-28.59,28.62-28.59
					c7.64,0,14.82,2.98,20.22,8.39c5.4,5.4,8.37,12.59,8.37,20.23C103.35,88.18,90.52,101,74.75,101z M90.44,79.59
					c-0.86-0.43-5.09-2.51-5.88-2.8c-0.79-0.29-1.36-0.43-1.93,0.43c-0.57,0.86-2.22,2.8-2.72,3.37c-0.5,0.57-1,0.65-1.86,0.22
					c-0.86-0.43-3.63-1.34-6.92-4.27c-2.56-2.28-4.28-5.09-4.78-5.96s-0.05-1.33,0.38-1.75c0.39-0.39,0.86-1,1.29-1.51
					c0.43-0.5,0.57-0.86,0.86-1.43c0.29-0.57,0.14-1.08-0.07-1.51c-0.21-0.43-1.93-4.66-2.65-6.38c-0.7-1.68-1.41-1.45-1.93-1.48
					c-0.5-0.02-1.07-0.03-1.65-0.03c-0.57,0-1.5,0.22-2.29,1.08c-0.79,0.86-3.01,2.94-3.01,7.17s3.08,8.32,3.51,8.89
					c0.43,0.57,6.06,9.26,14.69,12.98c2.05,0.89,3.65,1.41,4.9,1.81c2.06,0.65,3.93,0.56,5.42,0.34c1.65-0.25,5.09-2.08,5.8-4.09
					c0.72-2.01,0.72-3.73,0.5-4.09C91.88,80.23,91.3,80.02,90.44,79.59z"/>
			</g>
		</g>
	</g>
</g>
</svg>
