<?xml version="1.0" encoding="utf-8"?>
<!-- Generator: Adobe Illustrator 24.0.2, SVG Export Plug-In . SVG Version: 6.00 Build 0)  -->
<svg version="1.1" id="Capa_1" xmlns="http://www.w3.org/2000/svg" xmlns:xlink="http://www.w3.org/1999/xlink" x="0px" y="0px"
	 viewBox="0 0 232.96 98.81" style="enable-background:new 0 0 232.96 98.81;" xml:space="preserve">
<style type="text/css">
	.st0{fill:#08A098;}
</style>
<g>
	<path class="st0" d="M76.88,74.83c0.15-0.66,0.38-1.75,0.71-3.26c0.32-1.52,0.75-3.68,1.27-6.5c0.52-2.82,1.17-6.4,1.93-10.75
		c0.77-4.35,1.66-9.7,2.69-16.05c0.13-0.29,0.3-0.48,0.53-0.58c0.23-0.1,0.46-0.13,0.69-0.09c0.23,0.04,0.42,0.14,0.58,0.3
		c0.16,0.16,0.23,0.34,0.21,0.54l6.19,20.56l3.21-1.33c0.27,0,0.5,0.1,0.69,0.3c0.19,0.2,0.29,0.44,0.31,0.73
		c0.02,0.29-0.05,0.59-0.22,0.92c-0.17,0.33-0.46,0.59-0.88,0.79c-0.17,0.09-0.39,0.18-0.66,0.28c-0.27,0.1-0.55,0.19-0.82,0.28
		c-0.27,0.09-0.5,0.17-0.69,0.26c-0.19,0.09-0.28,0.17-0.28,0.26l3.49,12.7c-0.04,0.14-0.08,0.32-0.13,0.54
		c-0.04,0.21-0.13,0.39-0.25,0.52c-0.13,0.13-0.31,0.17-0.57,0.13c-0.25-0.04-0.61-0.25-1.07-0.62l-3.62-12.62
		c-0.44,0.17-0.98,0.34-1.64,0.49c-0.65,0.16-1.33,0.31-2.04,0.47c-0.71,0.16-1.43,0.34-2.15,0.56c-0.72,0.21-1.39,0.48-2,0.79
		c-0.61,0.31-1.12,0.69-1.54,1.14c-0.42,0.44-0.67,0.98-0.75,1.61c-0.04,0.4-0.12,1.06-0.24,1.97c-0.12,0.92-0.23,1.83-0.33,2.75
		c-0.13,1.09-0.27,2.26-0.44,3.52c-0.38,0.52-0.72,0.69-1.02,0.52C77.76,75.77,77.36,75.4,76.88,74.83 M84.77,42.99l-3.33,19.1
		c0.36-0.17,0.85-0.36,1.48-0.56c0.63-0.2,1.31-0.41,2.04-0.64c0.73-0.23,1.47-0.46,2.22-0.69c0.74-0.23,1.42-0.47,2.03-0.73
		L84.77,42.99z"/>
	<path class="st0" d="M96.66,38.74c0.23-0.46,0.51-0.59,0.83-0.41c0.33,0.19,0.63,0.47,0.91,0.86c0.28,0.39,0.51,0.77,0.68,1.16
		c0.17,0.39,0.21,0.57,0.13,0.54l11.54,26.91c0.06-0.43,0.12-1.12,0.17-2.08c0.05-0.96,0.09-2.09,0.11-3.39
		c0.02-1.3,0.03-2.73,0.02-4.27c-0.01-1.55-0.03-3.09-0.06-4.63c-0.03-1.55-0.08-3.06-0.14-4.55c-0.06-1.49-0.14-2.83-0.22-4.01
		c-0.08-1.19-0.18-2.17-0.28-2.96c-0.1-0.79-0.23-1.27-0.38-1.44c0-0.46,0.06-0.89,0.19-1.31c0.13-0.41,0.38-0.62,0.75-0.62
		c0.36,0,0.65,0.28,0.88,0.86c0.23,0.57,0.41,1.22,0.53,1.93s0.22,1.42,0.27,2.1c0.05,0.69,0.08,1.13,0.08,1.33
		c0.02,0.57,0.04,1.48,0.05,2.73c0.01,1.24,0.02,2.67,0.03,4.27c0.01,1.6,0.02,3.28,0.03,5.04c0.01,1.76,0.02,3.44,0.03,5.04
		c0.01,1.6,0.02,3.03,0.02,4.29c0,1.26,0.01,2.17,0.03,2.75c0.02,0.8,0.1,1.5,0.24,2.1c0.14,0.6,0.2,1.29,0.2,2.06
		c0,0.63-0.17,1.1-0.52,1.42c-0.35,0.31-0.73,0.47-1.15,0.47c-0.23,0-0.44-0.04-0.61-0.13c-0.18-0.09-0.32-0.23-0.42-0.43
		c-0.1-0.2-0.16-0.47-0.17-0.79c-0.01-0.33,0.04-0.74,0.14-1.22c-0.38-0.6-0.86-1.61-1.45-3.03c-0.59-1.42-1.23-3.02-1.93-4.81
		c-0.7-1.79-1.44-3.67-2.2-5.64c-0.76-1.97-1.5-3.84-2.2-5.6c-0.7-1.76-1.36-3.3-1.97-4.61c-0.61-1.32-1.1-2.22-1.48-2.7
		c-0.11,1.86-0.14,4.01-0.09,6.46c0.04,2.45,0.11,4.95,0.22,7.51c0.11,2.56,0.21,5.06,0.33,7.49c0.12,2.43,0.17,4.58,0.17,6.44
		c0,0.6-0.13,0.98-0.38,1.14c-0.25,0.16-0.51,0.19-0.79,0.11c-0.27-0.09-0.5-0.24-0.69-0.45c-0.19-0.21-0.22-0.38-0.09-0.49
		L96.66,38.74z"/>
	<path class="st0" d="M114.14,74.83c0.15-0.66,0.38-1.75,0.71-3.26c0.33-1.52,0.75-3.68,1.27-6.5c0.52-2.82,1.17-6.4,1.93-10.75
		c0.76-4.35,1.66-9.7,2.69-16.05c0.13-0.29,0.3-0.48,0.53-0.58c0.23-0.1,0.46-0.13,0.69-0.09c0.23,0.04,0.42,0.14,0.58,0.3
		c0.16,0.16,0.23,0.34,0.2,0.54l6.19,20.56l3.21-1.33c0.27,0,0.5,0.1,0.69,0.3c0.19,0.2,0.29,0.44,0.31,0.73
		c0.02,0.29-0.05,0.59-0.22,0.92c-0.17,0.33-0.46,0.59-0.88,0.79c-0.17,0.09-0.39,0.18-0.66,0.28c-0.27,0.1-0.55,0.19-0.82,0.28
		c-0.27,0.09-0.5,0.17-0.69,0.26c-0.19,0.09-0.28,0.17-0.28,0.26l3.49,12.7c-0.04,0.14-0.08,0.32-0.13,0.54
		c-0.04,0.21-0.13,0.39-0.25,0.52c-0.13,0.13-0.31,0.17-0.57,0.13c-0.25-0.04-0.61-0.25-1.07-0.62l-3.62-12.62
		c-0.44,0.17-0.98,0.34-1.64,0.49c-0.65,0.16-1.33,0.31-2.04,0.47c-0.71,0.16-1.43,0.34-2.15,0.56c-0.72,0.21-1.39,0.48-2,0.79
		c-0.61,0.31-1.12,0.69-1.54,1.14c-0.42,0.44-0.67,0.98-0.75,1.61c-0.04,0.4-0.12,1.06-0.24,1.97c-0.12,0.92-0.23,1.83-0.33,2.75
		c-0.13,1.09-0.27,2.26-0.44,3.52c-0.38,0.52-0.72,0.69-1.02,0.52C115.02,75.77,114.63,75.4,114.14,74.83 M122.04,42.99l-3.33,19.1
		c0.36-0.17,0.85-0.36,1.48-0.56c0.63-0.2,1.31-0.41,2.04-0.64c0.73-0.23,1.47-0.46,2.22-0.69c0.74-0.23,1.42-0.47,2.03-0.73
		L122.04,42.99z"/>
	<path class="st0" d="M133.92,38.74c0.23-0.46,0.51-0.59,0.83-0.41c0.33,0.19,0.63,0.47,0.91,0.86c0.28,0.39,0.51,0.77,0.68,1.16
		c0.17,0.39,0.21,0.57,0.13,0.54l11.54,26.91c0.06-0.43,0.12-1.12,0.17-2.08c0.05-0.96,0.09-2.09,0.11-3.39
		c0.02-1.3,0.03-2.73,0.02-4.27c-0.01-1.55-0.03-3.09-0.06-4.63c-0.03-1.55-0.08-3.06-0.14-4.55c-0.06-1.49-0.14-2.83-0.22-4.01
		c-0.08-1.19-0.18-2.17-0.28-2.96c-0.11-0.79-0.23-1.27-0.38-1.44c0-0.46,0.06-0.89,0.19-1.31c0.13-0.41,0.38-0.62,0.75-0.62
		c0.36,0,0.65,0.28,0.88,0.86c0.23,0.57,0.41,1.22,0.53,1.93c0.13,0.72,0.22,1.42,0.27,2.1c0.05,0.69,0.08,1.13,0.08,1.33
		c0.02,0.57,0.04,1.48,0.05,2.73c0.01,1.24,0.02,2.67,0.03,4.27c0.01,1.6,0.02,3.28,0.03,5.04c0.01,1.76,0.02,3.44,0.03,5.04
		c0.01,1.6,0.02,3.03,0.02,4.29c0,1.26,0.01,2.17,0.03,2.75c0.02,0.8,0.1,1.5,0.24,2.1c0.14,0.6,0.2,1.29,0.2,2.06
		c0,0.63-0.17,1.1-0.52,1.42c-0.35,0.31-0.73,0.47-1.15,0.47c-0.23,0-0.44-0.04-0.61-0.13c-0.18-0.09-0.32-0.23-0.42-0.43
		c-0.1-0.2-0.16-0.47-0.17-0.79c-0.01-0.33,0.04-0.74,0.14-1.22c-0.38-0.6-0.86-1.61-1.45-3.03c-0.59-1.42-1.23-3.02-1.93-4.81
		c-0.7-1.79-1.44-3.67-2.2-5.64c-0.76-1.97-1.5-3.84-2.2-5.6c-0.7-1.76-1.36-3.3-1.97-4.61c-0.61-1.32-1.1-2.22-1.48-2.7
		c-0.11,1.86-0.14,4.01-0.09,6.46c0.04,2.45,0.11,4.95,0.22,7.51c0.1,2.56,0.21,5.06,0.33,7.49c0.12,2.43,0.17,4.58,0.17,6.44
		c0,0.6-0.13,0.98-0.38,1.14c-0.25,0.16-0.51,0.19-0.79,0.11c-0.27-0.09-0.5-0.24-0.69-0.45c-0.19-0.21-0.22-0.38-0.09-0.49
		L133.92,38.74z"/>
	<path class="st0" d="M162.25,41.83c-0.82-0.14-1.64-0.16-2.45-0.06c-0.82,0.1-1.63,0.22-2.44,0.36c-0.81,0.14-1.62,0.28-2.44,0.41
		c-0.82,0.13-1.64,0.15-2.45,0.06c-0.23-0.03-0.47-0.1-0.71-0.21c-0.24-0.11-0.34-0.41-0.3-0.9c0.02-0.31,0.14-0.63,0.35-0.94
		c0.21-0.32,0.43-0.46,0.66-0.43l9.47-0.77c0.02-0.14,0.06-0.35,0.13-0.62c0.06-0.27,0.15-0.54,0.25-0.79
		c0.1-0.26,0.23-0.48,0.38-0.67c0.15-0.19,0.31-0.26,0.5-0.24c0.27,0.03,0.49,0.15,0.64,0.37c0.16,0.21,0.29,0.44,0.39,0.69
		c0.11,0.24,0.2,0.47,0.28,0.67c0.08,0.2,0.19,0.31,0.31,0.34c3.37,0,6.84-0.09,10.41-0.26c0.06,0,0.23,0.01,0.5,0.02
		c0.27,0.01,0.46,0.04,0.57,0.06c0.13,0.49-0.01,0.87-0.39,1.14c-0.39,0.27-0.94,0.48-1.67,0.62c-0.72,0.14-1.55,0.24-2.47,0.3
		c-0.92,0.06-1.84,0.1-2.75,0.13c-0.91,0.03-1.77,0.07-2.58,0.13c-0.81,0.06-1.44,0.14-1.9,0.26c-0.17,1.49-0.26,3.09-0.28,4.81
		c-0.02,1.72-0.02,3.49,0.02,5.32c0.03,1.83,0.09,3.69,0.17,5.58c0.08,1.89,0.16,3.75,0.24,5.58c0.07,1.83,0.12,3.6,0.14,5.32
		c0.02,1.72-0.01,3.32-0.09,4.81c0.13,0.92,0.07,1.44-0.17,1.57c-0.24,0.13-0.7,0.12-1.37-0.02c-0.17-1.17-0.29-2.6-0.38-4.27
		c-0.08-1.67-0.15-3.49-0.19-5.45c-0.04-1.96-0.06-3.99-0.06-6.09c0-2.1-0.01-4.17-0.03-6.2c-0.02-2.03-0.05-3.96-0.08-5.77
		C162.43,44.84,162.36,43.23,162.25,41.83"/>
	<path class="st0" d="M177.25,38.87c0.08-0.17,0.21-0.29,0.39-0.36c0.18-0.07,0.36-0.09,0.55-0.06c0.19,0.03,0.37,0.1,0.55,0.21
		c0.18,0.11,0.3,0.24,0.36,0.39l0.47,35.19c0,0.34-0.06,0.59-0.19,0.73c-0.13,0.14-0.28,0.22-0.46,0.24
		c-0.18,0.02-0.36-0.02-0.55-0.11c-0.19-0.09-0.35-0.21-0.47-0.39L177.25,38.87z"/>
	<path class="st0" d="M180.77,74.83c0.15-0.66,0.38-1.75,0.71-3.26c0.32-1.52,0.75-3.68,1.27-6.5c0.52-2.82,1.17-6.4,1.93-10.75
		c0.76-4.35,1.66-9.7,2.69-16.05c0.13-0.29,0.3-0.48,0.53-0.58c0.23-0.1,0.46-0.13,0.69-0.09c0.23,0.04,0.42,0.14,0.58,0.3
		c0.16,0.16,0.23,0.34,0.2,0.54l6.19,20.56l3.21-1.33c0.27,0,0.5,0.1,0.69,0.3c0.19,0.2,0.29,0.44,0.31,0.73
		c0.02,0.29-0.05,0.59-0.22,0.92c-0.17,0.33-0.46,0.59-0.88,0.79c-0.17,0.09-0.39,0.18-0.66,0.28c-0.27,0.1-0.55,0.19-0.82,0.28
		c-0.27,0.09-0.5,0.17-0.69,0.26c-0.19,0.09-0.28,0.17-0.28,0.26l3.49,12.7c-0.04,0.14-0.08,0.32-0.13,0.54
		c-0.04,0.21-0.12,0.39-0.25,0.52c-0.12,0.13-0.31,0.17-0.57,0.13c-0.25-0.04-0.61-0.25-1.07-0.62l-3.62-12.62
		c-0.44,0.17-0.99,0.34-1.64,0.49c-0.65,0.16-1.33,0.31-2.04,0.47c-0.71,0.16-1.43,0.34-2.15,0.56c-0.72,0.21-1.39,0.48-2,0.79
		c-0.61,0.31-1.12,0.69-1.54,1.14c-0.42,0.44-0.67,0.98-0.76,1.61c-0.04,0.4-0.12,1.06-0.24,1.97c-0.12,0.92-0.23,1.83-0.33,2.75
		c-0.13,1.09-0.27,2.26-0.44,3.52c-0.38,0.52-0.72,0.69-1.02,0.52C181.65,75.77,181.26,75.4,180.77,74.83 M188.67,42.99l-3.33,19.1
		c0.36-0.17,0.85-0.36,1.48-0.56c0.63-0.2,1.31-0.41,2.04-0.64c0.73-0.23,1.47-0.46,2.22-0.69c0.74-0.23,1.42-0.47,2.03-0.73
		L188.67,42.99z"/>
	<path class="st0" d="M201.4,72.98c-0.06-6.12-0.14-11.22-0.22-15.3c-0.08-4.08-0.16-7.38-0.22-9.91c-0.06-2.53-0.11-4.41-0.16-5.62
		c-0.04-1.22-0.06-2.01-0.06-2.38c0-0.43,0.09-0.77,0.27-1.03c0.18-0.26,0.37-0.38,0.58-0.36c0.21,0.01,0.41,0.17,0.6,0.47
		c0.19,0.3,0.29,0.78,0.31,1.44l1.01,31.46l13.65-3.95c1.4,0,1.71,0.82,0.91,2.45l-15.79,4.59C201.7,74.83,201.4,74.21,201.4,72.98"
		/>
	<path class="st0" d="M16.46,24.55c1.16-1.69,2.54-3.43,4.13-5.21c1.59-1.78,3.21-3.29,4.84-4.54c1.64-1.24,3.21-2.09,4.72-2.54
		c1.51-0.45,2.74-0.23,3.7,0.68c1.2,1.19,1.79,2.91,1.77,5.17c-0.02,2.26-0.44,4.85-1.24,7.76c-0.81,2.91-1.87,6.02-3.2,9.32
		c-1.33,3.3-2.67,6.56-4.04,9.75c-1.37,3.19-2.64,6.2-3.82,9.03c-1.18,2.83-2.02,5.23-2.52,7.2c1.57-2.88,3.37-6.07,5.4-9.58
		c2.03-3.5,4.14-6.99,6.33-10.47c2.19-3.47,4.39-6.79,6.58-9.96c2.19-3.16,4.24-5.86,6.15-8.09c1.9-2.23,3.58-3.84,5.03-4.83
		c1.45-0.99,2.53-1.06,3.23-0.21c0.62,0.68,0.82,2.12,0.59,4.32c-0.23,2.2-0.66,4.75-1.3,7.63c-0.64,2.88-1.43,5.91-2.36,9.07
		c-0.93,3.17-1.79,6.08-2.58,8.73c1.49-2.88,3.22-5.88,5.18-8.99c1.97-3.11,4-6.06,6.09-8.86c2.09-2.8,4.17-5.31,6.24-7.55
		c2.07-2.23,3.97-3.91,5.71-5.04c1.99-1.36,3.5-1.99,4.53-1.91c1.03,0.08,1.74,0.62,2.11,1.61c0.37,0.99,0.5,2.29,0.37,3.9
		c-0.12,1.61-0.36,3.23-0.71,4.87c-0.35,1.64-0.74,3.18-1.15,4.62c-0.41,1.44-0.72,2.5-0.93,3.18c-0.25,0.79-0.69,2.06-1.34,3.81
		c-0.64,1.75-1.39,3.81-2.24,6.19c-0.85,2.37-1.78,4.96-2.79,7.75c-1.02,2.8-2.02,5.64-3.01,8.52c-0.99,2.88-1.94,5.69-2.83,8.43
		c-0.89,2.74-1.66,5.24-2.3,7.5c-0.64,2.26-1.11,4.18-1.4,5.76c-0.29,1.58-0.33,2.63-0.12,3.14c0.25,0.62,0.78,0.78,1.58,0.47
		c0.81-0.31,1.78-0.92,2.92-1.82c1.14-0.9,2.39-2.02,3.76-3.35c1.37-1.33,2.72-2.71,4.07-4.15c1.34-1.44,2.64-2.85,3.88-4.24
		c1.24-1.38,2.32-2.58,3.23-3.6c-0.66,0.79-1.64,1.98-2.92,3.56s-2.69,3.23-4.22,4.96c-1.53,1.72-3.12,3.4-4.75,5.04
		c-1.64,1.64-3.14,2.92-4.5,3.86c-1.37,0.93-2.51,1.37-3.42,1.31c-0.91-0.06-1.43-0.9-1.55-2.54c-0.08-1.19,0.17-3.08,0.75-5.68
		c0.58-2.6,1.34-5.58,2.3-8.94c0.95-3.36,2.03-6.91,3.23-10.64c1.2-3.73,2.37-7.33,3.51-10.81c1.14-3.47,2.16-6.61,3.07-9.41
		c0.91-2.8,1.59-4.96,2.05-6.48c0.04-0.17,0.21-0.66,0.5-1.48c0.29-0.82,0.6-1.78,0.93-2.88c0.33-1.1,0.64-2.26,0.93-3.47
		c0.29-1.21,0.49-2.3,0.59-3.26c0.1-0.96,0.05-1.69-0.15-2.2c-0.21-0.51-0.64-0.62-1.3-0.34c-1.33,0.51-2.85,1.57-4.56,3.18
		c-1.72,1.61-3.5,3.52-5.34,5.72c-1.84,2.2-3.7,4.63-5.56,7.29c-1.86,2.66-3.59,5.3-5.19,7.93c-1.59,2.63-3,5.14-4.22,7.54
		c-1.22,2.4-2.1,4.45-2.64,6.15c-0.08,0-0.22-0.04-0.4-0.13c-0.19-0.08-0.36-0.24-0.53-0.47c-0.17-0.23-0.27-0.55-0.31-0.98
		c-0.04-0.42,0.08-1,0.37-1.74c0.25-0.56,0.51-1.19,0.78-1.86c0.27-0.68,0.57-1.33,0.9-1.95c0.66-2.49,1.39-5.2,2.17-8.14
		c0.79-2.94,1.48-5.72,2.08-8.35c0.6-2.63,1.03-4.92,1.3-6.87c0.27-1.95,0.22-3.23-0.15-3.86c-0.37-0.62-1.12-0.44-2.24,0.55
		c-1.12,0.99-2.48,2.52-4.1,4.58c-1.61,2.06-3.41,4.53-5.37,7.42c-1.97,2.88-3.96,5.93-5.99,9.15c-2.03,3.22-4.03,6.46-5.99,9.7
		c-1.97,3.25-3.75,6.29-5.34,9.11c-1.59,2.83-2.95,5.28-4.07,7.37c-1.12,2.09-1.84,3.56-2.17,4.41c-0.17,0-0.38-0.09-0.65-0.26
		c-0.27-0.17-0.5-0.42-0.68-0.76c-0.19-0.34-0.29-0.76-0.31-1.27c-0.02-0.51,0.16-1.13,0.53-1.86c0.33-0.62,0.68-1.37,1.06-2.25
		c0.37-0.87,0.85-1.76,1.43-2.67c0.46-1.3,0.88-2.6,1.27-3.9c0.39-1.3,0.82-2.63,1.27-3.98c0.79-2.32,1.78-5.1,2.98-8.35
		c1.2-3.25,2.4-6.58,3.6-10c1.2-3.42,2.3-6.72,3.29-9.92c0.99-3.19,1.68-5.86,2.05-8.01c0.46-2.83,0.41-4.7-0.12-5.64
		c-0.54-0.93-1.39-1.23-2.55-0.89c-1.16,0.34-2.49,1.13-4,2.37c-1.51,1.24-2.98,2.66-4.41,4.24c-1.43,1.58-2.7,3.14-3.82,4.66
		c-1.12,1.53-1.86,2.74-2.23,3.65c-0.83,0.23-1.29,0.14-1.4-0.25c-0.1-0.39-0.04-0.9,0.19-1.53c0.23-0.62,0.54-1.24,0.93-1.87
		C16.02,25.29,16.3,24.84,16.46,24.55"/>
</g>
</svg>
