<?xml version="1.0" encoding="utf-8"?>
<!-- Generator: Adobe Illustrator 24.0.2, SVG Export Plug-In . SVG Version: 6.00 Build 0)  -->
<svg version="1.1" id="Capa_1" xmlns="http://www.w3.org/2000/svg" xmlns:xlink="http://www.w3.org/1999/xlink" x="0px" y="0px"
	 viewBox="0 0 145.46 145.39" style="enable-background:new 0 0 145.46 145.39;" xml:space="preserve">
<style type="text/css">
	.st0{fill:#E52520;}
	.st1{fill:#FFFFFF;}
</style>
<g>
	<g>
		<circle class="st0" cx="73.83" cy="72.69" r="67.5"/>
		<path class="st1" d="M116.95,51.03c-1.04-3.87-4.08-6.92-7.96-7.96c-7.02-1.88-35.16-1.88-35.16-1.88s-28.14,0-35.16,1.88
			c-3.87,1.04-6.92,4.08-7.96,7.96c-1.88,7.02-1.88,21.66-1.88,21.66s0,14.64,1.88,21.66c1.03,3.87,4.08,6.92,7.96,7.96
			c7.02,1.88,35.16,1.88,35.16,1.88s28.14,0,35.16-1.88c3.87-1.04,6.92-4.08,7.96-7.96c1.88-7.02,1.88-21.66,1.88-21.66
			S118.83,58.05,116.95,51.03z M64.83,86.19v-27l23.38,13.5L64.83,86.19z"/>
	</g>
</g>
</svg>
