<?xml version="1.0" encoding="utf-8"?>
<!-- Generator: Adobe Illustrator 24.0.2, SVG Export Plug-In . SVG Version: 6.00 Build 0)  -->
<svg version="1.1" id="Capa_1" xmlns="http://www.w3.org/2000/svg" xmlns:xlink="http://www.w3.org/1999/xlink" x="0px" y="0px"
	 viewBox="0 0 145.46 145.39" style="enable-background:new 0 0 145.46 145.39;" xml:space="preserve">
<style type="text/css">
	.st0{fill:#0D6A66;}
	.st1{fill:#FFFFFF;}
</style>
<g>
	<g>
		<circle class="st0" cx="72" cy="74.48" r="66.75"/>
		<path class="st1" d="M114.64,53.06c-1.02-3.83-4.04-6.85-7.87-7.87C99.83,43.33,72,43.33,72,43.33s-27.83,0-34.77,1.86
			c-3.83,1.02-6.85,4.04-7.87,7.87c-1.86,6.94-1.86,21.42-1.86,21.42s0,14.48,1.86,21.42c1.02,3.83,4.04,6.85,7.87,7.87
			c6.94,1.86,34.77,1.86,34.77,1.86s27.83,0,34.77-1.86c3.83-1.02,6.85-4.04,7.87-7.87c1.86-6.94,1.86-21.42,1.86-21.42
			S116.5,60,114.64,53.06z M63.1,87.83v-26.7l23.12,13.35L63.1,87.83z"/>
	</g>
</g>
</svg>
