<?xml version="1.0" encoding="utf-8"?>
<!-- Generator: Adobe Illustrator 24.0.2, SVG Export Plug-In . SVG Version: 6.00 Build 0)  -->
<svg version="1.1" id="Capa_1" xmlns="http://www.w3.org/2000/svg" xmlns:xlink="http://www.w3.org/1999/xlink" x="0px" y="0px"
	 viewBox="0 0 145.46 145.39" style="enable-background:new 0 0 145.46 145.39;" xml:space="preserve">
<style type="text/css">
	.st0{fill:#396EB5;}
	.st1{fill:#FFFFFF;}
</style>
<g>
	<g>
		<path class="st0" d="M139.94,72.69c0-37.28-30.22-67.5-67.5-67.5s-67.5,30.22-67.5,67.5c0,33.69,24.68,61.62,56.95,66.68V92.2
			H44.75V72.69h17.14V57.82c0-16.92,10.08-26.26,25.5-26.26c7.39,0,15.11,1.32,15.11,1.32v16.61h-8.51c-8.38,0-11,5.2-11,10.54
			v12.66h18.72L98.71,92.2H82.99v47.17C115.25,134.31,139.94,106.38,139.94,72.69z"/>
		<path class="st1" d="M98.71,92.2l2.99-19.51H82.99V60.03c0-5.34,2.61-10.54,11-10.54h8.51V32.88c0,0-7.72-1.32-15.11-1.32
			c-15.42,0-25.5,9.34-25.5,26.26v14.87H44.75V92.2h17.14v47.17c3.44,0.54,6.96,0.82,10.55,0.82c3.59,0,7.11-0.28,10.55-0.82V92.2
			H98.71z"/>
	</g>
</g>
</svg>
