<?xml version="1.0" encoding="utf-8"?>
<!-- Generator: Adobe Illustrator 24.0.2, SVG Export Plug-In . SVG Version: 6.00 Build 0)  -->
<svg version="1.1" id="Capa_1" xmlns="http://www.w3.org/2000/svg" xmlns:xlink="http://www.w3.org/1999/xlink" x="0px" y="0px"
	 viewBox="0 0 145.46 145.39" style="enable-background:new 0 0 145.46 145.39;" xml:space="preserve">
<style type="text/css">
	.st0{fill:#0D6A66;}
	.st1{fill:none;}
	.st2{fill:#FFFFFF;}
</style>
<g>
	<g>
		<circle class="st0" cx="72.97" cy="74.14" r="67.09"/>
		<g>
			<circle class="st1" cx="72.97" cy="74.48" r="14.01"/>
			<path class="st1" d="M105.74,49.7c-0.76-1.96-1.67-3.36-3.14-4.83c-1.47-1.47-2.87-2.38-4.83-3.14c-1.48-0.58-3.71-1.26-7.8-1.45
				c-4.43-0.2-5.76-0.24-16.98-0.24c-11.22,0-12.55,0.04-16.98,0.24c-4.1,0.19-6.32,0.87-7.8,1.45c-1.96,0.76-3.36,1.67-4.83,3.14
				c-1.47,1.47-2.38,2.87-3.14,4.83c-0.58,1.48-1.26,3.71-1.45,7.8c-0.2,4.43-0.24,5.76-0.24,16.98c0,11.22,0.04,12.55,0.24,16.98
				c0.19,4.1,0.87,6.32,1.45,7.8c0.76,1.96,1.67,3.36,3.14,4.83c1.47,1.47,2.87,2.38,4.83,3.14c1.48,0.58,3.71,1.26,7.8,1.45
				c4.43,0.2,5.76,0.24,16.98,0.24c11.22,0,12.55-0.04,16.98-0.24c4.1-0.19,6.32-0.87,7.8-1.45c1.96-0.76,3.36-1.67,4.83-3.14
				c1.47-1.47,2.38-2.87,3.14-4.83c0.58-1.48,1.26-3.71,1.45-7.8c0.2-4.43,0.25-5.76,0.25-16.98c0-11.22-0.04-12.55-0.25-16.98
				C107,53.4,106.31,51.18,105.74,49.7z M72.97,96.06c-11.92,0-21.58-9.66-21.58-21.58c0-11.92,9.66-21.58,21.58-21.58
				s21.58,9.66,21.58,21.58C94.55,86.4,84.89,96.06,72.97,96.06z M95.41,57.09c-2.79,0-5.04-2.26-5.04-5.04S92.62,47,95.41,47
				c2.79,0,5.04,2.26,5.04,5.04S98.19,57.09,95.41,57.09z"/>
			<path class="st2" d="M114.75,57.15c-0.2-4.47-0.91-7.53-1.95-10.2c-1.07-2.76-2.51-5.11-4.85-7.44
				c-2.34-2.34-4.68-3.77-7.44-4.85c-2.67-1.04-5.73-1.75-10.2-1.95c-4.48-0.2-5.91-0.25-17.33-0.25c-11.41,0-12.85,0.05-17.33,0.25
				c-4.47,0.2-7.53,0.91-10.2,1.95c-2.76,1.07-5.11,2.51-7.44,4.85c-2.34,2.34-3.77,4.68-4.85,7.44c-1.04,2.67-1.75,5.73-1.95,10.2
				c-0.2,4.48-0.25,5.91-0.25,17.33c0,11.41,0.05,12.85,0.25,17.33c0.2,4.47,0.91,7.53,1.95,10.2c1.07,2.76,2.51,5.11,4.85,7.44
				c2.34,2.34,4.68,3.77,7.44,4.85c2.67,1.04,5.73,1.75,10.2,1.95c4.48,0.2,5.91,0.25,17.33,0.25c11.41,0,12.85-0.05,17.33-0.25
				c4.47-0.2,7.53-0.91,10.2-1.95c2.76-1.07,5.11-2.51,7.44-4.85c2.34-2.34,3.77-4.68,4.85-7.44c1.04-2.67,1.75-5.73,1.95-10.2
				c0.2-4.48,0.25-5.91,0.25-17.33S114.95,61.64,114.75,57.15z M107.18,91.47c-0.19,4.1-0.87,6.32-1.45,7.8
				c-0.76,1.96-1.67,3.36-3.14,4.83c-1.47,1.47-2.87,2.38-4.83,3.14c-1.48,0.58-3.71,1.26-7.8,1.45c-4.43,0.2-5.76,0.24-16.98,0.24
				c-11.22,0-12.55-0.04-16.98-0.24c-4.1-0.19-6.32-0.87-7.8-1.45c-1.96-0.76-3.36-1.67-4.83-3.14c-1.47-1.47-2.38-2.87-3.14-4.83
				c-0.58-1.48-1.26-3.71-1.45-7.8c-0.2-4.43-0.24-5.76-0.24-16.98c0-11.22,0.04-12.55,0.24-16.98c0.19-4.1,0.87-6.32,1.45-7.8
				c0.76-1.96,1.67-3.36,3.14-4.83c1.47-1.47,2.87-2.38,4.83-3.14c1.48-0.58,3.71-1.26,7.8-1.45c4.43-0.2,5.76-0.24,16.98-0.24
				c11.22,0,12.55,0.04,16.98,0.24c4.1,0.19,6.32,0.87,7.8,1.45c1.96,0.76,3.36,1.67,4.83,3.14c1.47,1.47,2.38,2.87,3.14,4.83
				c0.58,1.48,1.26,3.71,1.45,7.8c0.2,4.43,0.25,5.76,0.25,16.98C107.43,85.7,107.38,87.03,107.18,91.47z"/>
			<path class="st2" d="M72.97,52.9c-11.92,0-21.58,9.66-21.58,21.58c0,11.92,9.66,21.58,21.58,21.58s21.58-9.66,21.58-21.58
				C94.55,62.56,84.89,52.9,72.97,52.9z M72.97,88.49c-7.74,0-14.01-6.27-14.01-14.01c0-7.74,6.27-14.01,14.01-14.01
				s14.01,6.27,14.01,14.01C86.98,82.22,80.71,88.49,72.97,88.49z"/>
			<path class="st2" d="M95.41,47c-2.79,0-5.04,2.26-5.04,5.04s2.26,5.04,5.04,5.04c2.79,0,5.04-2.26,5.04-5.04S98.19,47,95.41,47z"
				/>
		</g>
	</g>
</g>
</svg>
